<svg xmlns="http://www.w3.org/2000/svg"  viewBox="0 0 64 64" width="50px" height="50px"><linearGradient id="QEAs1R0X99ir9tuTM82LRa" x1="8" x2="20.939" y1="68.5" y2="68.5" gradientUnits="userSpaceOnUse"><stop offset="0" stop-color="#1a6dff"/><stop offset="1" stop-color="#c822ff"/></linearGradient><linearGradient id="QEAs1R0X99ir9tuTM82LRb" x1="14.5" x2="14.5" y1="48.66" y2="11.8" gradientUnits="userSpaceOnUse"><stop offset="0" stop-color="#6bc5fd"/><stop offset="1" stop-color="#e4a9fd"/></linearGradient><polygon fill="url(#QEAs1R0X99ir9tuTM82LRb)" points="9,12 9,39 15,39 15,28 19,28 19,22 15,22 15,18 20,18 20,12"/><linearGradient id="QEAs1R0X99ir9tuTM82LRc" x1="39.5" x2="39.5" y1="48.66" y2="11.8" gradientUnits="userSpaceOnUse"><stop offset="0" stop-color="#6bc5fd"/><stop offset="1" stop-color="#e4a9fd"/></linearGradient><polygon fill="url(#QEAs1R0X99ir9tuTM82LRc)" points="34,39 34,12 40,12 40,33 45,33 45,39"/><linearGradient id="QEAs1R0X99ir9tuTM82LRd" x1="50.5" x2="50.5" y1="48.66" y2="11.8" gradientUnits="userSpaceOnUse"><stop offset="0" stop-color="#6bc5fd"/><stop offset="1" stop-color="#e4a9fd"/></linearGradient><polygon fill="url(#QEAs1R0X99ir9tuTM82LRd)" points="45,39 45,12 51,12 51,33 56,33 56,39"/><linearGradient id="QEAs1R0X99ir9tuTM82LRe" x1="26.5" x2="26.5" y1="48.66" y2="11.8" gradientUnits="userSpaceOnUse"><stop offset="0" stop-color="#6bc5fd"/><stop offset="1" stop-color="#e4a9fd"/></linearGradient><path fill="url(#QEAs1R0X99ir9tuTM82LRe)" d="M23,12h7l4,27h-5l-1-5h-3l-1,5h-5L23,12z M26.125,21.016	c-2.477,0.207-4.317,2.383-4.109,4.859s2.383,4.317,4.859,4.109s4.317-2.383,4.109-4.859S28.602,20.809,26.125,21.016z"/><linearGradient id="QEAs1R0X99ir9tuTM82LRf" x1="32.5" x2="32.5" y1="11" y2="55.02" gradientUnits="userSpaceOnUse"><stop offset="0" stop-color="#1a6dff"/><stop offset="1" stop-color="#c822ff"/></linearGradient><path fill="url(#QEAs1R0X99ir9tuTM82LRf)" d="M42.068,42h2.798c0.399,0,0.638,0.445,0.416,0.777L41.8,48v6c0,0.552-0.448,1-1,1h-2 c-0.552,0-1-0.448-1-1v-6l-3.482-5.223C34.097,42.445,34.335,42,34.734,42h2.798c0.167,0,0.323,0.084,0.416,0.223L39.8,45 l1.852-2.777C41.744,42.084,41.9,42,42.068,42z M51.48,47.162c-1.055-0.476-1.447-0.687-1.591-0.781 c-0.173-0.111-0.293-0.22-0.364-0.326c-0.054-0.08-0.08-0.18-0.08-0.305c0-0.207,0.067-0.355,0.216-0.478 c0.336-0.274,1.176-0.247,1.939-0.068c0.264,0.062,1.055,0.341,1.574,0.528c0.267,0.096,0.565-0.027,0.675-0.276l0.844-1.922 c0.114-0.259-0.019-0.555-0.295-0.657c-0.574-0.212-1.486-0.542-1.884-0.64c-0.627-0.153-1.29-0.231-1.973-0.231 c-1.43,0-2.58,0.338-3.416,1.006c-0.863,0.688-1.3,1.636-1.3,2.819c0,0.628,0.134,1.189,0.399,1.67 c0.254,0.463,0.599,0.876,1.027,1.228c0.418,0.341,1.015,0.682,1.819,1.039c0.784,0.353,1.301,0.607,1.536,0.757 c0.208,0.131,0.362,0.262,0.459,0.389c0.072,0.096,0.105,0.198,0.105,0.322c0,0.316-0.129,0.444-0.241,0.521 c-0.413,0.28-1.377,0.29-2.466,0.02c-0.343-0.086-1.351-0.47-2.054-0.744c-0.348-0.136-0.728,0.107-0.728,0.463v2.278 c0,0.215,0.141,0.405,0.357,0.473c0.768,0.241,1.884,0.775,3.674,0.775c1.549,0,2.789-0.344,3.682-1.021 c0.933-0.703,1.405-1.674,1.405-2.885c0-0.872-0.253-1.624-0.753-2.236C53.561,48.284,52.721,47.723,51.48,47.162z M15.286,47.713 l0,1.739c0,0.229,0.188,0.416,0.418,0.41c0.584-0.016,1.282,0.013,1.282,0.013l0,1.681c-0.49,0.307-0.85,0.369-1.7,0.369 c-2.08,0-3.286-2.05-3.286-3.587c0-3.326,2.902-4.749,6.042-3.026c0.231,0.127,0.52,0.069,0.666-0.15l0.943-1.413 c0.143-0.214,0.106-0.509-0.096-0.668c-1.137-0.894-2.495-1.405-4.269-1.405c-3.897,0-6.686,2.982-6.686,6.662 C8.6,52.95,11.976,55,15.286,55c1.919,0,3.378-0.472,4.376-1.47c0.08-0.08,0.124-0.193,0.124-0.307l0-5.51 c0-0.221-0.179-0.4-0.4-0.4h-3.7C15.465,47.313,15.286,47.492,15.286,47.713z M15,40H9c-0.553,0-1-0.447-1-1V12 c0-0.552,0.447-1,1-1h11c0.553,0,1,0.448,1,1v6c0,0.552-0.447,1-1,1h-4v2h3c0.553,0,1,0.448,1,1v6c0,0.552-0.447,1-1,1h-3v10 C16,39.553,15.553,40,15,40z M10,38h4V28c0-0.552,0.447-1,1-1h3v-4h-3c-0.553,0-1-0.448-1-1v-4c0-0.552,0.447-1,1-1h4v-4h-9V38z M45,40H34c-0.553,0-1-0.447-1-1V12c0-0.552,0.447-1,1-1h6c0.553,0,1,0.448,1,1v20h4c0.553,0,1,0.448,1,1v6 C46,39.553,45.553,40,45,40z M35,38h9v-4h-4c-0.553,0-1-0.447-1-1V13h-4V38z M56,40H45c-0.553,0-1-0.447-1-1V12 c0-0.552,0.447-1,1-1h6c0.553,0,1,0.448,1,1v20h4c0.553,0,1,0.448,1,1v6C57,39.553,56.553,40,56,40z M46,38h9v-4h-4 c-0.553,0-1-0.447-1-1V13h-4V38z M34,40h-5c-0.477,0-0.887-0.337-0.98-0.804L27.181,35h-1.361l-0.839,4.196 C24.887,39.663,24.477,40,24,40h-5c-0.291,0-0.567-0.127-0.757-0.347c-0.19-0.221-0.275-0.513-0.232-0.8l4-27 C22.083,11.363,22.504,11,23,11h7c0.496,0,0.917,0.363,0.989,0.854l4,27c0.043,0.287-0.042,0.579-0.232,0.8 C34.567,39.873,34.291,40,34,40z M29.819,38h3.021l-3.703-25h-5.275l-3.703,25h3.021l0.839-4.196C24.113,33.337,24.523,33,25,33h3 c0.477,0,0.887,0.337,0.98,0.804L29.819,38z M24.724,25.448c-0.479,0.04-0.836,0.461-0.796,0.94l0.065,0.789 c0.04,0.479,0.461,0.836,0.94,0.796c0.479-0.04,0.836-0.461,0.796-0.94l-0.065-0.789C25.624,25.765,25.203,25.409,24.724,25.448z M28.241,25.157c-0.479,0.04-0.836,0.461-0.796,0.94l0.065,0.789c0.04,0.479,0.461,0.836,0.94,0.796 c0.479-0.04,0.836-0.461,0.796-0.94l-0.065-0.789C29.141,25.474,28.72,25.118,28.241,25.157z M27.3,55L27.3,55 c3.094,0,5.603-2.509,5.603-5.603V42.5c0-0.276-0.224-0.5-0.5-0.5H29.8c-0.276,0-0.5,0.224-0.5,0.5V49c0,1.105-0.895,2-2,2h0 c-1.105,0-2-0.895-2-2l0-6.5c0-0.276-0.224-0.5-0.5-0.5h-2.603c-0.276,0-0.5,0.224-0.5,0.5v6.897C21.697,52.491,24.206,55,27.3,55z"/></svg>