<svg height="1024" preserveAspectRatio="none" viewBox="0 0 1024 1024" width="1024" xmlns="http://www.w3.org/2000/svg"><path d="m969.6 351.25q-8.6-20.85-19.4-40.85-6.1-11.35-12.9-22.4-29.35-47.55-71.55-89.8-138.25-138.25-333.8-138.25-195.5 0-333.75 138.25-138.25 138.25-138.25 333.75 0 195.55 138.25 333.8 138.25 138.2 333.75 138.2 195.55 0 333.8-138.2 76.15-76.2 110.35-169.75 27.85-76.25 27.85-164.05 0-67.35-16.4-127.95-1.85-6.85-3.9-13.6-6.15-19.95-14.05-39.15z" fill-opacity=".098039"/><path d="m969.7 392q-1.75-6.85-3.65-13.6-1.52421875-5.28554687-3.2-10.55-2.47128906-7.946875-5.25-15.8-9.75-27.55-23.15-53.65-5.8-11.35-12.3-22.4-30.65-52-76.35-97.75-109-109-253.65-132.05-24.5-3.9-50.05-5.35-14.9-.85-30.1-.85-14.1 0-27.9.75-177.55 9.2-305.85 137.5-138.25 138.25-138.25 333.75 0 195.55 138.25 333.8 84.79003906 84.75703125 191.1 117.55 54.53808594 16.81308594 114.75 19.95.2 0 .4 0 12.15.6 24.5.7 1.5 0 3 0 15.25 0 30.1-.8 3.5-.2 6.95-.45 30.05-2.15 58.7-7.7 11.8-2.3 23.4-5.15 120.6-30.05 214.65-124.1 72.9-72.95 107.35-161.8 27.75-71.6 30.55-153.5.3-9.2.3-18.5 0-1 0-2 0-.5 0-1-.35-61.3-14.3-117z" fill="#333"/><path d="m983.7 530.5q.21484375-6.58652344.25-13.25l-202.4-202.4-232.2 289.25-302.35-293.4 170.25 438.7 219.15 219.15q117.40507813-30.75507812 209.4-122.75 72.9-72.95 107.35-161.8 27.75-71.6 30.55-153.5z" fill-opacity=".2"/><path d="m247 310.7q-1.65-1.85-3.9-1.05-2.3.8-2.3 3.2v211q.4 5.35 3.45 9.2l173 216.35q4.25 5.45 11.75 5.45h166.45q2.2 0 3.15-1.9 1.05-1.9-.4-3.55zm536.35 1.9q0-2.45-2.3-3.3-2.25-.75-3.9 1.15l-230.5 287.95q-1.4 1.65-.45 3.65.95 2.05 3.15 2.05h166.5q6.85 0 11.4-5.7l52.6-65.7q3.5-3.95 3.5-9.15z" fill="#e74c3c"/></svg>